<svg width="105" height="24" viewBox="0 0 105 24" fill="none" xmlns="http://www.w3.org/2000/svg">
<path fill-rule="evenodd" clip-rule="evenodd" d="M10.4542 0.0446633C10.7438 -0.0148878 11.0424 -0.0148878 11.332 0.0446633C11.6667 0.113501 11.9658 0.281058 12.2037 0.414269L12.2685 0.450486L20.3291 4.9286L20.397 4.96609L20.3979 4.96658C20.6496 5.10525 20.9662 5.27961 21.2093 5.54341C21.4195 5.77149 21.5785 6.0418 21.6758 6.33629C21.7884 6.67691 21.787 7.03831 21.786 7.32574L21.7858 7.4043V16.246L21.786 16.3246C21.787 16.612 21.7884 16.9734 21.6758 17.314C21.5785 17.6085 21.4195 17.8788 21.2093 18.1069C20.9662 18.3707 20.6496 18.5451 20.3979 18.6837L20.359 18.7052L20.3291 18.7217L12.2685 23.1998L12.2037 23.2361C11.9658 23.3693 11.6667 23.5368 11.332 23.6057C11.0424 23.6652 10.7438 23.6652 10.4542 23.6057C10.1195 23.5368 9.82038 23.3693 9.58255 23.2361L9.51772 23.1998L1.45711 18.7217L1.38834 18.6837C1.13657 18.5451 0.820014 18.3707 0.576916 18.1069C0.36674 17.8788 0.207684 17.6085 0.110385 17.314C-0.0021556 16.9734 -0.000838914 16.612 0.000208206 16.3246L0.000401566 16.246V7.4043L0.000208206 7.32573C-0.000838914 7.03831 -0.0021556 6.67691 0.110385 6.33629C0.207683 6.0418 0.366739 5.77149 0.576915 5.54342C0.820013 5.27962 1.13657 5.10526 1.38834 4.96659L1.45711 4.9286L9.51771 0.450486L9.58254 0.414272C9.82037 0.281061 10.1195 0.113501 10.4542 0.0446633ZM10.8879 2.18651C10.825 2.21683 10.7408 2.26317 10.5757 2.35487L3.33263 6.37881L10.8931 10.5791L18.4535 6.37879L11.2105 2.35487C11.0454 2.26317 10.9612 2.21683 10.8983 2.18651L10.8931 2.18402L10.8879 2.18651ZM9.8038 12.4661L2.17894 8.23003V16.246C2.17894 16.4453 2.1794 16.5474 2.18385 16.6212L2.18424 16.6275L2.18951 16.6308C2.25192 16.6706 2.34088 16.7205 2.51511 16.8173L9.80383 20.8666L9.8038 12.4661ZM38.8846 10.9627H35.7113C35.669 10.6369 35.5823 10.3429 35.4511 10.0805C35.3199 9.81821 35.1465 9.59397 34.9307 9.4078C34.7149 9.22163 34.4589 9.07989 34.1628 8.98258C33.8708 8.88103 33.5471 8.83026 33.1917 8.83026C32.5613 8.83026 32.0176 8.98469 31.5607 9.29356C31.1079 9.60243 30.7589 10.0488 30.5135 10.6327C30.2723 11.2166 30.1517 11.9232 30.1517 12.7524C30.1517 13.6156 30.2744 14.3391 30.5198 14.923C30.7695 15.5026 31.1185 15.9405 31.567 16.2367C32.0197 16.5287 32.555 16.6746 33.1727 16.6746C33.5196 16.6746 33.8348 16.6302 34.1183 16.5414C34.406 16.4525 34.6578 16.3235 34.8736 16.1542C35.0936 15.9807 35.2734 15.7713 35.413 15.5259C35.5569 15.2763 35.6563 14.9949 35.7113 14.6818L38.8846 14.7008C38.8296 15.2763 38.6625 15.8432 38.3832 16.4017C38.1082 16.9602 37.7295 17.4701 37.2472 17.9313C36.7648 18.3882 36.1767 18.7521 35.4828 19.0229C34.7932 19.2937 34.002 19.4291 33.1092 19.4291C31.933 19.4291 30.8795 19.171 29.9486 18.6548C29.022 18.1344 28.2901 17.377 27.7527 16.3827C27.2154 15.3884 26.9467 14.1783 26.9467 12.7524C26.9467 11.3224 27.2196 10.1102 27.7654 9.11586C28.3112 8.12156 29.0495 7.36632 29.9804 6.85013C30.9112 6.33394 31.9542 6.07585 33.1092 6.07585C33.8962 6.07585 34.6239 6.18585 35.2924 6.40587C35.9609 6.62165 36.5491 6.93898 37.0568 7.35785C37.5645 7.7725 37.977 8.28234 38.2944 8.88738C38.6117 9.49242 38.8084 10.1842 38.8846 10.9627ZM42.7645 19.2514V6.25359H39.661V19.2514H42.7645ZM67.6636 19.391C66.9443 19.391 66.2906 19.2048 65.7025 18.8325C65.1144 18.4602 64.6448 17.9017 64.2936 17.157C63.9424 16.4123 63.7668 15.4879 63.7668 14.3836C63.7668 13.2369 63.9488 12.2934 64.3126 11.553C64.6765 10.8125 65.1525 10.2646 65.7406 9.90922C66.3329 9.55381 66.9697 9.37611 67.6509 9.37611C68.1629 9.37611 68.6008 9.46496 68.9646 9.64266C69.3285 9.81613 69.6289 10.0404 69.8659 10.3154C70.1028 10.5904 70.2826 10.876 70.4053 11.1722H70.4688V6.25359H73.5722V19.2514H70.5005V17.6711H70.4053C70.2741 17.9715 70.088 18.2529 69.8468 18.5152C69.6056 18.7775 69.3031 18.9891 68.9393 19.1498C68.5796 19.3106 68.1544 19.391 67.6636 19.391ZM68.7425 16.973C69.1191 16.973 69.4406 16.8672 69.7072 16.6556C69.9737 16.4398 70.179 16.1373 70.3228 15.7481C70.4667 15.3588 70.5386 14.9019 70.5386 14.3772C70.5386 13.8441 70.4667 13.385 70.3228 13C70.1832 12.615 69.978 12.3188 69.7072 12.1115C69.4406 11.9042 69.1191 11.8005 68.7425 11.8005C68.3575 11.8005 68.0317 11.9063 67.7651 12.1178C67.4986 12.3294 67.2955 12.6277 67.1559 13.0127C67.0205 13.3977 66.9528 13.8526 66.9528 14.3772C66.9528 14.9019 67.0226 15.3588 67.1622 15.7481C67.3018 16.1373 67.5028 16.4398 67.7651 16.6556C68.0317 16.8672 68.3575 16.973 68.7425 16.973ZM77.6171 19.2514V13.6918C77.6214 13.3194 77.6912 13.0021 77.8266 12.7398C77.9662 12.4775 78.1587 12.2765 78.4041 12.1369C78.6537 11.993 78.9415 11.9211 79.2672 11.9211C79.7665 11.9211 80.1536 12.0734 80.4287 12.378C80.7037 12.6827 80.8391 13.1058 80.8348 13.6474V19.2514H83.9383V13.0381C83.9425 12.3019 83.8029 11.6588 83.5194 11.1087C83.2402 10.5587 82.8467 10.1335 82.339 9.83306C81.8312 9.52842 81.2347 9.37611 80.5492 9.37611C79.8215 9.37611 79.2059 9.54535 78.7024 9.88383C78.2031 10.2223 77.8435 10.692 77.6235 11.2928H77.5156V6.25359H74.5137V19.2514H77.6171ZM95.195 19.2514V6.25359H98.2985V11.1722H98.3619C98.4888 10.876 98.6687 10.5904 98.9014 10.3154C99.1383 10.0404 99.4387 9.81613 99.8026 9.64266C100.171 9.46496 100.611 9.37611 101.123 9.37611C101.8 9.37611 102.432 9.55381 103.02 9.90922C103.613 10.2646 104.091 10.8125 104.455 11.553C104.818 12.2934 105 13.2369 105 14.3836C105 15.4879 104.825 16.4123 104.474 17.157C104.127 17.9017 103.657 18.4602 103.065 18.8325C102.477 19.2048 101.823 19.391 101.104 19.391C100.613 19.391 100.188 19.3106 99.828 19.1498C99.4683 18.9891 99.1658 18.7775 98.9204 18.5152C98.6792 18.2529 98.4931 17.9715 98.3619 17.6711H98.2667V19.2514H95.195ZM98.235 14.3772C98.235 14.9019 98.3048 15.3588 98.4444 15.7481C98.5883 16.1373 98.7935 16.4398 99.06 16.6556C99.3308 16.8672 99.6545 16.973 100.031 16.973C100.412 16.973 100.736 16.8672 101.002 16.6556C101.269 16.4398 101.47 16.1373 101.605 15.7481C101.745 15.3588 101.814 14.9019 101.814 14.3772C101.814 13.8526 101.745 13.3977 101.605 13.0127C101.47 12.6277 101.269 12.3294 101.002 12.1178C100.74 11.9063 100.416 11.8005 100.031 11.8005C99.6503 11.8005 99.3266 11.9042 99.06 12.1115C98.7935 12.3188 98.5883 12.615 98.4444 13C98.3048 13.385 98.235 13.8441 98.235 14.3772ZM91.1438 15.0436V9.50301H94.2409V19.2514H91.2834V17.4362H91.1818C90.9661 18.0328 90.598 18.5067 90.0775 18.8579C89.5614 19.2048 88.9373 19.3783 88.2053 19.3783C87.541 19.3783 86.9572 19.226 86.4537 18.9213C85.9502 18.6167 85.5588 18.1915 85.2796 17.6457C85.0003 17.0956 84.8586 16.4525 84.8543 15.7163V9.50301H87.9578V15.107C87.962 15.6359 88.1017 16.0527 88.3767 16.3573C88.6517 16.6619 89.0261 16.8143 89.5 16.8143C89.8089 16.8143 90.086 16.7466 90.3314 16.6112C90.581 16.4716 90.7778 16.2706 90.9216 16.0083C91.0697 15.7417 91.1438 15.4201 91.1438 15.0436ZM60.052 9.50301V15.0436C60.052 15.4201 59.9779 15.7417 59.8298 16.0083C59.686 16.2706 59.4892 16.4716 59.2396 16.6112C58.9942 16.7466 58.7171 16.8143 58.4082 16.8143C57.9343 16.8143 57.5599 16.6619 57.2849 16.3573C57.0099 16.0527 56.8702 15.6359 56.866 15.107V9.50301H53.7625V15.7163C53.7668 16.4525 53.9085 17.0956 54.1878 17.6457C54.467 18.1915 54.8584 18.6167 55.3619 18.9213C55.8654 19.226 56.4492 19.3783 57.1135 19.3783C57.8455 19.3783 58.4696 19.2048 58.9858 18.8579C59.5062 18.5067 59.8743 18.0328 60.0901 17.4362H60.1916V19.2514H63.1491V9.50301H60.052ZM48.269 19.4353C47.2451 19.4353 46.3651 19.2259 45.6289 18.807C44.8969 18.3839 44.3321 17.7958 43.9344 17.0427C43.5409 16.2853 43.3441 15.4073 43.3441 14.4088C43.3441 13.4061 43.5409 12.5281 43.9344 11.775C44.3321 11.0176 44.8969 10.4295 45.6289 10.0106C46.3651 9.58753 47.2451 9.37598 48.269 9.37598C49.293 9.37598 50.1709 9.58753 50.9029 10.0106C51.6391 10.4295 52.2039 11.0176 52.5974 11.775C52.9951 12.5281 53.194 13.4061 53.194 14.4088C53.194 15.4073 52.9951 16.2853 52.5974 17.0427C52.2039 17.7958 51.6391 18.3839 50.9029 18.807C50.1709 19.2259 49.293 19.4353 48.269 19.4353ZM48.2881 17.0934C48.6604 17.0934 48.9756 16.9792 49.2337 16.7507C49.4918 16.5222 49.6886 16.2049 49.824 15.7987C49.9636 15.3925 50.0334 14.9229 50.0334 14.3898C50.0334 13.8482 49.9636 13.3743 49.824 12.9681C49.6886 12.562 49.4918 12.2446 49.2337 12.0162C48.9756 11.7877 48.6604 11.6734 48.2881 11.6734C47.9031 11.6734 47.5773 11.7877 47.3107 12.0162C47.0484 12.2446 46.8474 12.562 46.7078 12.9681C46.5724 13.3743 46.5047 13.8482 46.5047 14.3898C46.5047 14.9229 46.5724 15.3925 46.7078 15.7987C46.8474 16.2049 47.0484 16.5222 47.3107 16.7507C47.5773 16.9792 47.9031 17.0934 48.2881 17.0934Z" fill="black"/>
</svg>
