<svg width="721" height="701" viewBox="0 0 721 701" fill="none" xmlns="http://www.w3.org/2000/svg">
<path fill-rule="evenodd" clip-rule="evenodd" d="M0.000235446 0.937348C-0.0020294 0.933724 -0.00320706 0.931006 0.772639 0.46353C1.54858 -0.00394808 1.54938 -0.00304397 1.55129 0.000579896L1.56007 0.0150817L1.59595 0.0739713C1.62811 0.127423 1.6764 0.207135 1.74099 0.312227C1.87018 0.524227 2.06414 0.839512 2.32278 1.25716C2.83989 2.09246 3.61529 3.33272 4.64652 4.95259C6.70889 8.19051 9.79421 12.9423 13.883 18.9923C22.0606 31.0915 34.2511 48.3809 50.2964 69.1312C82.3878 110.632 129.893 165.965 191.548 221.298C314.866 331.971 494.715 442.575 720.994 442.575V444.387C494.1 444.387 313.837 333.482 190.338 222.646C128.584 167.225 81.0047 111.805 48.863 70.2392C32.7917 49.4563 20.5786 32.1352 12.3818 20.007C8.2835 13.9425 5.189 9.17709 3.11821 5.9256C2.08281 4.3003 1.30342 3.05278 0.782329 2.21114C0.521872 1.79077 0.325918 1.47188 0.194829 1.25716C0.129329 1.14935 0.0800457 1.06871 0.0470695 1.01435L0.00974603 0.952749L0.000235446 0.937348ZM0.0864804 134.232C0.0842155 134.229 0.0829477 134.229 0.772639 133.641C1.46224 133.054 1.46297 133.054 1.46478 133.056L1.47347 133.066L1.50907 133.108L1.57203 133.181L1.65357 133.275C1.70865 133.34 1.77551 133.417 1.85423 133.507L1.98007 133.652C2.05644 133.74 2.14114 133.837 2.23418 133.943C2.75057 134.533 3.52524 135.41 4.55565 136.555C6.61648 138.844 9.70026 142.206 13.7875 146.484C21.9619 155.042 34.1492 167.273 50.1912 181.951C82.2758 211.309 129.777 250.459 191.428 289.608C314.734 367.908 494.622 446.199 720.994 446.199V448.011C494.191 448.011 313.969 369.569 190.457 291.137C128.701 251.922 81.1166 212.704 48.9681 183.288C32.8935 168.579 20.6772 156.321 12.4772 147.736C8.37727 143.443 5.28131 140.069 3.20897 137.767C2.17285 136.616 1.39257 135.732 0.870841 135.136C0.60984 134.838 0.413615 134.612 0.282163 134.46C0.216483 134.383 0.167018 134.326 0.13377 134.287L0.0961739 134.244L0.0864804 134.232ZM0.772639 226.049C0.189396 226.742 0.190663 226.744 0.193019 226.746L0.202712 226.754L0.240488 226.786L0.338421 226.867L0.389243 226.909C0.520876 227.018 0.717375 227.181 0.978561 227.394C1.50074 227.822 2.28139 228.455 3.31806 229.282C5.39111 230.932 8.48796 233.351 12.5887 236.428C20.7901 242.582 33.0075 251.37 49.0828 261.913C81.2331 282.999 128.816 311.107 190.568 339.213C314.072 395.427 494.255 451.635 720.994 451.635V449.823C494.559 449.823 314.631 393.691 191.319 337.564C129.662 309.501 82.1593 281.439 50.0764 260.398C34.0351 249.877 21.849 241.112 13.6761 234.979C9.58965 231.912 6.50659 229.504 4.44657 227.864C3.41661 227.044 2.64241 226.415 2.12648 225.993C2.01577 225.902 1.91692 225.821 1.83004 225.749C1.71445 225.654 1.61996 225.576 1.54658 225.515C1.48225 225.462 1.43415 225.421 1.40244 225.395L1.36693 225.365L1.35833 225.358C1.35833 225.358 1.35733 225.357 1.3394 225.378C1.33088 225.388 1.31838 225.402 1.29999 225.424C1.26602 225.464 1.21211 225.527 1.12605 225.63L0.772639 226.049ZM0.385259 327.43C0.385259 327.43 0.384715 327.43 0.385259 327.428C0.385802 327.427 0.387249 327.423 0.390601 327.415C0.397305 327.399 0.411713 327.369 0.44179 327.305C0.493066 327.197 0.590092 326.993 0.772639 326.611C0.9493 326.242 1.04623 326.04 1.09969 325.929C1.1246 325.877 1.14 325.846 1.14969 325.826C1.15902 325.807 1.16282 325.8 1.16454 325.797C1.16563 325.795 1.16609 325.795 1.16609 325.795L1.17469 325.8L1.21029 325.817L1.35462 325.885C1.48326 325.945 1.67676 326.036 1.93486 326.156C2.45106 326.397 3.22564 326.754 4.25596 327.221C6.31661 328.153 9.40049 329.523 13.4879 331.267C21.6626 334.755 33.8515 339.74 49.8961 345.722C81.9854 357.688 129.498 373.645 191.17 389.605C314.514 421.523 494.492 453.446 720.994 453.446V455.258C494.322 455.258 314.189 423.311 190.716 391.359C128.979 375.383 81.4068 359.405 49.2631 347.419C33.1912 341.427 20.9765 336.432 12.7768 332.934C8.67713 331.185 5.58118 329.809 3.50867 328.872C2.47245 328.402 1.69207 328.042 1.17007 327.799C0.909157 327.678 0.712756 327.585 0.581214 327.524L0.432638 327.453L0.394952 327.435L0.385259 327.43ZM0.772639 407.242C0.649612 407.89 0.616635 408.067 0.608754 408.115C0.605764 408.133 0.606849 408.133 0.606849 408.133L0.61627 408.135L0.653414 408.142L0.800994 408.17C0.931815 408.194 1.12749 408.231 1.38776 408.279L1.63164 408.324L1.93187 408.379C2.09757 408.409 2.27885 408.443 2.47553 408.478C2.83863 408.544 3.25419 408.619 3.72201 408.704C5.79145 409.076 8.88449 409.621 12.981 410.315C21.1742 411.704 33.3823 413.686 49.4469 416.065C81.5761 420.824 129.132 427.167 190.85 433.511C314.287 446.197 494.373 458.882 720.994 458.882V457.07C494.44 457.07 314.417 444.389 191.036 431.708C129.345 425.368 81.8162 419.028 49.7123 414.273C33.6604 411.896 21.4649 409.916 13.2837 408.529C9.19312 407.836 6.10616 407.291 4.04262 406.921C3.01084 406.735 2.23482 406.593 1.71725 406.497C1.45843 406.45 1.2642 406.413 1.13475 406.389L0.989433 406.362L0.953367 406.354L0.944489 406.353C0.944489 406.353 0.943492 406.353 0.939778 406.37C0.936245 406.387 0.929731 406.42 0.91732 406.484L0.889776 406.627C0.864591 406.758 0.827358 406.954 0.772639 407.242ZM0.782512 456.164C0.780428 456.164 0.779433 456.164 0.772639 457.07C0.765754 457.976 0.766841 457.976 0.768834 457.976H0.777981H0.793201L0.814583 457.977H0.842123H0.875641H0.915318L0.961068 457.978H1.01289L1.07078 457.979H1.13475L1.20477 457.98H1.28096L1.36312 457.981L1.45137 457.982L1.54567 457.983H1.64606L1.7524 457.984L1.86483 457.984L1.98334 457.985L2.10799 457.986L2.23854 457.987L2.37515 457.989L2.51775 457.99L2.66641 457.991L2.82105 457.992L2.98186 457.994L3.14855 457.994L3.32131 457.995L3.49996 457.997L3.68468 457.998L3.87548 458L4.07224 458.002L4.2749 458.003L4.48363 458.004L4.69833 458.006L4.91902 458.008L5.1457 458.01L5.37833 458.012L5.61696 458.013L5.86156 458.015L6.11206 458.017L6.36861 458.019L6.63106 458.021L6.8995 458.023L7.17381 458.024L7.45412 458.027L7.74039 458.029L8.03256 458.032L8.3307 458.033L8.63474 458.036L8.94474 458.038L9.26061 458.041L9.5824 458.043L9.91017 458.045L10.2438 458.048L10.5834 458.051L10.9289 458.053L11.2803 458.056L11.6375 458.059L12.0007 458.061L12.3698 458.064L12.7448 458.067L13.1255 458.07L13.5123 458.072L13.9048 458.076L14.3033 458.079L14.7077 458.081L15.1179 458.085L15.534 458.088L15.9559 458.091L16.3836 458.094L16.8172 458.098L17.2567 458.101L17.7021 458.104L18.1532 458.108L18.6103 458.111L19.073 458.115L19.5417 458.119L20.0162 458.121L20.4965 458.125L20.9826 458.129L21.4746 458.133L21.9724 458.137L22.4759 458.14L22.9853 458.144L23.5005 458.148L24.0214 458.152L24.5482 458.156L25.0808 458.16L25.6191 458.164L26.1632 458.168L26.7132 458.172L27.2689 458.177L27.8304 458.181L28.3976 458.185L28.9706 458.189L29.5493 458.194L30.1338 458.198L30.724 458.203L31.32 458.207L31.9218 458.212L32.5293 458.216L33.1425 458.221L33.7615 458.225L34.3862 458.23L35.0167 458.235L35.6529 458.24L36.2947 458.244L36.9423 458.25L37.5956 458.254L38.2546 458.259L38.9194 458.264L39.5898 458.27L40.266 458.274L40.9478 458.28L41.6353 458.285L42.3285 458.29L43.0275 458.295L43.732 458.301L44.4423 458.306L45.1581 458.312L45.8797 458.317L46.607 458.322L47.34 458.328L48.0786 458.333L48.8228 458.339L49.5728 458.345L50.3283 458.35L51.0895 458.356L51.8564 458.362L52.6289 458.368L53.407 458.374L54.1907 458.379L54.9801 458.386L55.7751 458.391L56.5757 458.398L57.382 458.404L58.1938 458.41L59.0112 458.416L59.8343 458.422L60.663 458.428L61.4973 458.435L62.3371 458.441L63.1826 458.447L64.0335 458.454L64.8902 458.46L65.7524 458.467L66.6202 458.474L67.4936 458.48L68.3724 458.486L69.2569 458.494L70.147 458.5L71.0426 458.507L71.9438 458.514L72.8505 458.521L73.7628 458.527L74.6806 458.534L75.6039 458.542L76.5328 458.548L77.4673 458.555L78.4072 458.562L79.3527 458.57L80.3037 458.577L81.2601 458.584L82.2222 458.591L83.1897 458.599L84.1628 458.606L85.1414 458.613L86.1254 458.62L87.1149 458.628L88.11 458.636L89.1106 458.643L90.1166 458.65L91.1283 458.658L92.1448 458.666L93.1676 458.674L94.1959 458.681L95.2286 458.689L96.2677 458.697L97.3123 458.705L98.3623 458.713L99.4168 458.721L100.478 458.729L101.544 458.737L102.616 458.745L103.693 458.754L104.775 458.762L105.863 458.77L106.956 458.778L108.055 458.786L109.159 458.794L110.269 458.803L111.383 458.812L112.504 458.82L113.63 458.828L114.762 458.837L115.898 458.845L117.04 458.854L118.187 458.862L119.34 458.871L120.498 458.88L121.662 458.889L122.831 458.898L124.005 458.907L125.184 458.916L126.369 458.925L127.56 458.933L128.756 458.942L129.957 458.951L131.164 458.96L132.375 458.97L133.592 458.979L134.815 458.988L136.043 458.997L137.276 459.006L138.514 459.016L139.758 459.025L141.007 459.034L142.262 459.044L143.521 459.054L144.787 459.063L146.057 459.073L147.333 459.083L148.614 459.092L149.9 459.102L151.192 459.111L152.489 459.121L153.791 459.131L155.098 459.141L156.411 459.151L157.729 459.161L159.053 459.171L160.381 459.181L161.715 459.191L163.054 459.201L164.399 459.211L165.749 459.222L167.103 459.232L168.464 459.242L169.829 459.253L171.2 459.263L172.575 459.273L173.956 459.284L175.343 459.294L176.734 459.304L178.131 459.315L179.533 459.325L180.94 459.336L182.353 459.347L183.771 459.358L185.193 459.369L186.621 459.379L188.054 459.39L189.492 459.4L190.936 459.411L192.385 459.422L193.839 459.434L195.299 459.445L196.763 459.456L198.232 459.467L199.707 459.478L201.186 459.489L202.671 459.5L204.161 459.512L205.657 459.523L207.157 459.535L208.663 459.545L210.174 459.557L211.69 459.568L213.211 459.58L214.736 459.592L216.268 459.603L217.804 459.614L219.346 459.626L220.892 459.638L222.444 459.65L224.001 459.661L225.563 459.673L227.131 459.685L228.702 459.697L230.28 459.709L231.862 459.72L233.449 459.733L235.042 459.745L236.639 459.757L238.242 459.768L239.85 459.781L241.462 459.793L243.08 459.805L244.704 459.817L246.332 459.83L247.964 459.842L249.603 459.854L251.246 459.867L252.894 459.88L254.548 459.892L256.206 459.904L257.869 459.917L259.538 459.93L261.211 459.942L262.89 459.955L264.573 459.968L266.262 459.98L267.955 459.993L269.653 460.006L271.357 460.018L273.065 460.032L274.778 460.045L276.497 460.057L278.221 460.071L279.949 460.084L281.682 460.096L283.421 460.11L285.164 460.123L286.912 460.136L288.666 460.15L290.424 460.162L292.188 460.176L293.956 460.19L295.729 460.202L297.507 460.216L299.29 460.229L301.079 460.243L302.871 460.257L304.669 460.27L306.472 460.284L308.28 460.297L310.093 460.311L311.91 460.325L313.733 460.338L315.56 460.353L317.392 460.366L319.229 460.38L321.072 460.394L322.919 460.408L324.771 460.422L326.628 460.436L328.49 460.45L330.356 460.464L332.227 460.478L334.104 460.492L335.985 460.507L337.871 460.52L339.762 460.535L341.658 460.549L343.559 460.564L345.464 460.578L347.375 460.593L349.29 460.607L351.211 460.622L353.136 460.636L355.065 460.651L356.999 460.665L358.939 460.68L360.883 460.694L362.833 460.709L364.787 460.724L366.746 460.739L368.709 460.753L370.677 460.768L372.65 460.783L374.628 460.798L376.611 460.813L378.599 460.828L380.591 460.843L382.589 460.858L384.591 460.874L386.597 460.888L388.609 460.903L390.625 460.919L392.646 460.934L394.672 460.95L396.702 460.965L398.738 460.981L400.778 460.996L402.823 461.011L404.873 461.027L406.927 461.042L408.986 461.057L411.05 461.073L413.119 461.088L415.191 461.105L417.27 461.12L419.352 461.135L421.44 461.152L423.532 461.167L425.629 461.183L427.731 461.199L429.837 461.215L431.948 461.231L434.064 461.247L436.184 461.263L438.309 461.279L440.439 461.295L442.573 461.311L444.712 461.327L446.856 461.343L449.005 461.359L451.158 461.375L453.316 461.392L455.479 461.408L457.646 461.424L459.817 461.441L461.993 461.457L464.175 461.474L466.361 461.491L468.551 461.507L470.745 461.523L472.946 461.54L475.15 461.557L477.359 461.574L479.572 461.59L481.791 461.606L484.013 461.624L486.241 461.64L488.473 461.657L490.709 461.674L492.95 461.691L495.196 461.708L497.446 461.725L499.701 461.742L501.96 461.759L504.225 461.776L506.494 461.793L508.767 461.81L511.045 461.828L513.327 461.845L515.614 461.862L517.906 461.879L520.202 461.896L522.503 461.915L524.808 461.932L527.117 461.949L529.432 461.966L531.75 461.984L534.074 462.002L536.402 462.019L538.734 462.037L541.072 462.054L543.413 462.072L545.759 462.089L548.109 462.108L550.464 462.126L552.824 462.143L555.188 462.161L557.556 462.179L559.93 462.196L562.307 462.214L564.689 462.233L567.076 462.251L569.466 462.269L571.862 462.287L574.262 462.305L576.666 462.323L579.075 462.341L581.488 462.359L583.906 462.377L586.328 462.396L588.755 462.415L591.186 462.433L593.622 462.451L596.061 462.469L598.506 462.488L600.955 462.506L603.408 462.525L605.866 462.543L608.328 462.562L610.794 462.58L613.266 462.599L615.741 462.618L618.22 462.637L620.705 462.656L623.194 462.674L625.686 462.693L628.184 462.712L630.686 462.731L633.192 462.75L635.702 462.769L638.217 462.788L640.737 462.807L643.261 462.826L645.789 462.845L648.321 462.864L650.858 462.883L653.399 462.902L655.945 462.921L658.495 462.941L661.049 462.96L663.607 462.979L666.17 462.998L668.737 463.018L671.308 463.037L673.885 463.057L676.465 463.076L679.05 463.096L681.638 463.115L684.232 463.135L686.829 463.155L689.431 463.174L692.036 463.194L694.647 463.214L697.262 463.233L699.881 463.253L702.504 463.273L705.132 463.293L707.763 463.312L710.4 463.332L713.04 463.352L715.685 463.372L718.334 463.392L720.986 463.412L721 461.6L718.347 461.58L715.698 461.56L713.053 461.54L710.413 461.52L707.777 461.501L705.145 461.481L702.518 461.461L699.894 461.441L697.275 461.422L694.661 461.402L692.051 461.382L689.444 461.362L686.842 461.343L684.245 461.323L681.651 461.303L679.063 461.284L676.479 461.264L673.898 461.245L671.322 461.225L668.751 461.206L666.184 461.187L663.621 461.167L661.062 461.148L658.508 461.129L655.958 461.109L653.413 461.09L650.871 461.071L648.335 461.052L645.803 461.033L643.274 461.014L640.75 460.995L638.231 460.976L635.716 460.957L633.206 460.938L630.7 460.919L628.197 460.9L625.7 460.881L623.208 460.862L620.719 460.844L618.235 460.825L615.754 460.806L613.279 460.788L610.808 460.768L608.342 460.75L605.88 460.731L603.422 460.713L600.969 460.694L598.52 460.676L596.075 460.657L593.635 460.639L591.2 460.621L588.768 460.603L586.341 460.584L583.92 460.566L581.502 460.547L579.088 460.529L576.68 460.511L574.275 460.493L571.875 460.475L569.48 460.457L567.089 460.439L564.702 460.421L562.32 460.403L559.943 460.384L557.57 460.367L555.202 460.349L552.837 460.331L550.478 460.314L548.123 460.296L545.773 460.277L543.426 460.26L541.085 460.242L538.748 460.225L536.416 460.207L534.088 460.19L531.764 460.172L529.446 460.154L527.131 460.137L524.822 460.12L522.516 460.103L520.216 460.085L517.919 460.067L515.628 460.05L513.341 460.033L511.059 460.016L508.78 459.998L506.507 459.981L504.239 459.964L501.975 459.948L499.715 459.93L497.46 459.913L495.209 459.896L492.964 459.879L490.723 459.863L488.486 459.845L486.254 459.829L484.027 459.812L481.804 459.795L479.586 459.778L477.372 459.762L475.164 459.745L472.96 459.728L470.76 459.711L468.565 459.695L466.374 459.679L464.188 459.662L462.008 459.646L459.831 459.629L457.659 459.612L455.492 459.596L453.33 459.58L451.172 459.564L449.018 459.547L446.87 459.531L444.726 459.516L442.587 459.499L440.453 459.483L438.323 459.467L436.198 459.451L434.078 459.435L431.961 459.419L429.85 459.403L427.744 459.387L425.642 459.372L423.546 459.355L421.453 459.34L419.366 459.323L417.283 459.308L415.205 459.293L413.132 459.276L411.063 459.261L408.999 459.246L406.94 459.23L404.886 459.215L402.836 459.199L400.792 459.184L398.751 459.169L396.716 459.153L394.686 459.138L392.66 459.122L390.639 459.107L388.622 459.092L386.611 459.076L384.604 459.062L382.602 459.046L380.605 459.031L378.612 459.016L376.625 459.001L374.643 458.986L372.664 458.971L370.691 458.957L368.722 458.941L366.759 458.927L364.801 458.912L362.846 458.897L360.897 458.882L358.953 458.868L357.013 458.853L355.079 458.839L353.149 458.824L351.224 458.81L349.304 458.795L347.388 458.781L345.478 458.766L343.573 458.752L341.672 458.737L339.776 458.723L337.885 458.709L335.999 458.695L334.117 458.68L332.241 458.667L330.369 458.652L328.503 458.638L326.641 458.624L324.784 458.61L322.933 458.596L321.085 458.582L319.244 458.568L317.406 458.554L315.574 458.541L313.746 458.526L311.924 458.513L310.106 458.499L308.293 458.485L306.485 458.472L304.682 458.458L302.885 458.445L301.092 458.431L299.304 458.418L297.521 458.404L295.743 458.39L293.97 458.378L292.201 458.364L290.438 458.35L288.68 458.338L286.926 458.324L285.178 458.311L283.435 458.298L281.696 458.284L279.963 458.272L278.234 458.259L276.511 458.245L274.792 458.233L273.079 458.22L271.37 458.206L269.667 458.194L267.968 458.181L266.275 458.168L264.587 458.156L262.903 458.143L261.225 458.13L259.551 458.118L257.883 458.105L256.219 458.092L254.561 458.08L252.908 458.068L251.26 458.055L249.617 458.042L247.979 458.031L246.345 458.018L244.718 458.005L243.094 457.994L241.476 457.981L239.863 457.969L238.256 457.957L236.653 457.945L235.056 457.933L233.463 457.921L231.876 457.908L230.293 457.897L228.716 457.885L227.144 457.873L225.577 457.861L224.015 457.849L222.458 457.838L220.906 457.826L219.359 457.814L217.818 457.802L216.282 457.791L214.75 457.78L213.224 457.768L211.703 457.756L210.188 457.745L208.677 457.733L207.171 457.723L205.671 457.711L204.175 457.7L202.685 457.688L201.2 457.677L199.72 457.666L198.246 457.655L196.776 457.644L195.312 457.633L193.853 457.622L192.399 457.611L190.95 457.599L189.506 457.589L188.068 457.578L186.635 457.567L185.206 457.557L183.784 457.546L182.366 457.535L180.954 457.524L179.547 457.513L178.145 457.503L176.748 457.493L175.356 457.483L173.97 457.472L172.589 457.461L171.213 457.451L169.843 457.441L168.477 457.43L167.117 457.42L165.762 457.41L164.412 457.399L163.068 457.389L161.729 457.379L160.395 457.369L159.066 457.359L157.743 457.349L156.425 457.339L155.112 457.329L153.805 457.319L152.503 457.31L151.206 457.3L149.914 457.291L148.627 457.281L147.346 457.271L146.071 457.262L144.801 457.252L143.535 457.242L142.276 457.233L141.021 457.223L139.772 457.213L138.528 457.204L137.29 457.194L136.057 457.185L134.829 457.176L133.606 457.167L132.389 457.158L131.177 457.148L129.97 457.139L128.769 457.13L127.573 457.121L126.383 457.113L125.198 457.104L124.018 457.095L122.844 457.086L121.676 457.077L120.512 457.069L119.354 457.059L118.2 457.05L117.054 457.042L115.911 457.033L114.775 457.025L113.644 457.016L112.518 457.008L111.398 457L110.283 456.991L109.173 456.982L108.068 456.974L106.97 456.966L105.877 456.958L104.789 456.95L103.706 456.942L102.629 456.934L101.558 456.925L100.491 456.917L99.4304 456.909L98.3759 456.901L97.3259 456.893L96.2813 456.886L95.2422 456.877L94.2094 456.87L93.1812 456.862L92.1584 456.854L91.1419 456.847L90.1303 456.839L89.1242 456.831L88.1237 456.824L87.1286 456.817L86.1391 456.809L85.155 456.801L84.1764 456.794L83.2035 456.787L82.2358 456.78L81.2738 456.772L80.3173 456.765L79.3663 456.758L78.4208 456.751L77.4809 456.743L76.5465 456.736L75.6176 456.73L74.6943 456.722L73.7765 456.715L72.8642 456.709L71.9574 456.702L71.0563 456.695L70.1607 456.688L69.2706 456.682L68.3861 456.674L67.5072 456.668L66.6339 456.662L65.7661 456.655L64.9039 456.648L64.0472 456.642L63.1962 456.635L62.3508 456.629L61.5109 456.623L60.6766 456.616L59.848 456.61L59.025 456.604L58.2075 456.598L57.3956 456.592L56.5894 456.586L55.7888 456.579L54.9938 456.574L54.2044 456.568L53.4206 456.562L52.6425 456.556L51.8701 456.55L51.1032 456.544L50.342 456.539L49.5865 456.533L48.8365 456.528L48.0922 456.521L47.3537 456.516L46.6208 456.51L45.8935 456.505L45.1718 456.5L44.456 456.494L43.7457 456.489L43.0411 456.483L42.3422 456.478L41.649 456.473L40.9615 456.468L40.2796 456.462L39.6035 456.458L38.9331 456.452L38.2683 456.447L37.6093 456.443L36.956 456.438L36.3084 456.433L35.6664 456.428L35.0303 456.423L34.3999 456.418L33.7752 456.414L33.1562 456.409L32.5429 456.404L31.9354 456.4L31.3337 456.395L30.7377 456.391L30.1474 456.386L29.563 456.382L28.9842 456.377L28.4112 456.373L27.8439 456.369L27.2825 456.365L26.7268 456.36L26.1769 456.356L25.6328 456.352L25.0944 456.348L24.5618 456.344L24.0351 456.34L23.5141 456.337L22.999 456.332L22.4896 456.328L21.9861 456.325L21.4882 456.321L20.9963 456.318L20.5102 456.314L20.0299 456.31L19.5553 456.307L19.0867 456.303L18.6238 456.299L18.1669 456.296L17.7157 456.292L17.2704 456.289L16.8309 456.286L16.3973 456.282L15.9694 456.279L15.5476 456.276L15.1315 456.273L14.7213 456.269L14.3169 456.267L13.9185 456.264L13.526 456.26L13.1392 456.258L12.7583 456.255L12.3835 456.252L12.0144 456.25L11.6512 456.247L11.2939 456.244L10.9426 456.241L10.5971 456.239L10.2575 456.236L9.92385 456.233L9.59608 456.231L9.27429 456.229L8.95842 456.226L8.64842 456.224L8.34438 456.221L8.04624 456.22L7.75407 456.217L7.4678 456.215L7.18749 456.213L6.91308 456.211L6.64474 456.209L6.3822 456.207L6.12582 456.205L5.87515 456.203L5.63064 456.202L5.39202 456.2L5.15937 456.198L4.93271 456.196L4.71202 456.194L4.49731 456.192L4.28858 456.191L4.08584 456.19L3.88915 456.188L3.69846 456.187L3.51364 456.185L3.3349 456.183L3.16223 456.182L2.99544 456.182L2.83483 456.18L2.68009 456.179L2.53143 456.178L2.38883 456.177L2.25213 456.175L2.12157 456.174L1.9971 456.173L1.87852 456.173L1.76609 456.172H1.65965L1.55935 456.171L1.46504 456.17L1.3768 456.169L1.29455 456.168H1.21845L1.14842 456.167H1.08447L1.02658 456.166H0.974666L0.929007 456.165H0.889323H0.8558H0.828261L0.806973 456.164H0.791663H0.782512ZM0.772639 699.869C0.189396 699.176 0.190663 699.175 0.193019 699.173L0.202712 699.165L0.240488 699.134L0.249366 699.125L0.32918 699.059L0.389243 699.009L0.500312 698.917L0.62651 698.813C0.726616 698.73 0.844025 698.634 0.978561 698.524C1.50074 698.096 2.28139 697.463 3.31806 696.638C5.39111 694.986 8.48788 692.568 12.5887 689.49C20.7901 683.336 33.0075 674.548 49.0828 664.006C81.2331 642.919 128.816 614.812 190.568 586.705C314.072 530.492 494.255 474.284 720.994 474.284V476.096C494.559 476.096 314.631 532.227 191.319 588.354C129.662 616.418 82.1593 644.479 50.0764 665.52C34.0351 676.041 21.849 684.807 13.6761 690.94C9.58965 694.006 6.50659 696.415 4.44657 698.055C3.41661 698.875 2.64241 699.503 2.12648 699.925C1.86846 700.137 1.67504 700.297 1.54658 700.404C1.49494 700.446 1.45381 700.481 1.42319 700.506L1.40244 700.523L1.36693 700.553L1.35833 700.56C1.35833 700.56 1.35706 700.561 1.31358 700.511C1.25342 700.44 1.1111 700.271 0.772639 699.869ZM0.385259 597.582C0.382903 597.583 0.381636 597.584 0.772639 598.401C1.16355 599.218 1.16428 599.218 1.16609 599.217L1.17469 599.213L1.21029 599.196L1.35462 599.128C1.48326 599.067 1.67676 598.976 1.93486 598.856C2.14676 598.757 2.40214 598.639 2.70092 598.502C2.88347 598.417 3.08223 598.326 3.29712 598.228C3.58729 598.096 3.90691 597.95 4.25596 597.792C6.31661 596.859 9.40049 595.489 13.4879 593.745C21.6626 590.258 33.8515 585.274 49.8961 579.291C81.9854 567.325 129.498 551.367 191.17 535.407C314.514 503.489 494.492 471.566 720.994 471.566V469.754C494.322 469.754 314.189 501.701 190.716 533.653C128.979 549.629 81.4068 565.607 49.2631 577.593C33.1912 583.586 20.9765 588.58 12.7768 592.079C8.67713 593.828 5.58118 595.203 3.50867 596.142C2.47245 596.61 1.69207 596.971 1.17007 597.213C1.02321 597.282 0.896841 597.341 0.790937 597.391C0.708587 597.429 0.638741 597.462 0.581214 597.49L0.432638 597.559L0.394952 597.578L0.385259 597.582ZM0.772639 516.864C0.6035 515.974 0.604675 515.974 0.606849 515.974L0.61627 515.972L0.653414 515.964L0.800994 515.937C0.931815 515.913 1.12749 515.876 1.38776 515.828C1.90832 515.732 2.68725 515.589 3.72201 515.403C5.79145 515.03 8.88449 514.485 12.981 513.791C21.1742 512.403 33.3823 510.42 49.4469 508.041C81.5761 503.283 129.132 496.939 190.85 490.596C314.287 477.909 494.373 465.224 720.994 465.224V467.036C494.44 467.036 314.417 479.718 191.036 492.398C129.345 498.738 81.8162 505.078 49.7123 509.833C33.6604 512.21 21.4649 514.192 13.2837 515.578C9.19312 516.271 6.10616 516.815 4.04262 517.186C3.41942 517.298 2.88955 517.394 2.45352 517.474C2.1677 517.526 1.92218 517.572 1.71725 517.61C1.45843 517.658 1.2642 517.694 1.13475 517.718L0.989433 517.746L0.953367 517.752L0.944489 517.754C0.942587 517.754 0.94169 517.755 0.772639 516.864Z" fill="url(#paint0_linear_801_14011)"/>
<defs>
<linearGradient id="paint0_linear_801_14011" x1="710.123" y1="341.093" x2="13.9817" y2="341.093" gradientUnits="userSpaceOnUse">
<stop offset="0.0182341" stop-color="#FD4B28" stop-opacity="0"/>
<stop offset="0.127609" stop-color="#FD4B28"/>
<stop offset="0.563305" stop-color="#FD4C28" stop-opacity="0.65"/>
<stop offset="0.943305" stop-color="#FD4C28" stop-opacity="0"/>
</linearGradient>
</defs>
</svg>
