<svg width="721" height="701" viewBox="0 0 721 701" fill="none" xmlns="http://www.w3.org/2000/svg">
<path fill-rule="evenodd" clip-rule="evenodd" d="M721 0.937348C721.002 0.933724 721.003 0.931006 720.227 0.46353C719.451 -0.00394808 719.451 -0.00304397 719.449 0.000579896L719.44 0.0150817L719.404 0.0739713C719.372 0.127423 719.324 0.207135 719.259 0.312227C719.13 0.524227 718.936 0.839512 718.677 1.25716C718.16 2.09246 717.385 3.33272 716.353 4.95259C714.291 8.19051 711.206 12.9423 707.117 18.9923C698.939 31.0915 686.749 48.3809 670.704 69.1312C638.612 110.632 591.107 165.965 529.452 221.298C406.134 331.971 226.285 442.575 0.00634963 442.575V444.387C226.9 444.387 407.163 333.482 530.662 222.646C592.416 167.225 639.995 111.805 672.137 70.2392C688.208 49.4563 700.421 32.1352 708.618 20.007C712.716 13.9425 715.811 9.17709 717.882 5.9256C718.917 4.3003 719.697 3.05278 720.218 2.21114C720.478 1.79077 720.674 1.47188 720.805 1.25716C720.871 1.14935 720.92 1.06871 720.953 1.01435L720.99 0.952749L721 0.937348ZM720.914 134.232C720.916 134.229 720.917 134.229 720.227 133.641C719.538 133.054 719.537 133.054 719.535 133.056L719.527 133.066L719.491 133.108L719.428 133.181L719.346 133.275C719.291 133.34 719.224 133.417 719.146 133.507L719.02 133.652C718.944 133.74 718.859 133.837 718.766 133.943C718.249 134.533 717.475 135.41 716.444 136.555C714.384 138.844 711.3 142.206 707.213 146.484C699.038 155.042 686.851 167.273 670.809 181.951C638.724 211.309 591.223 250.459 529.572 289.608C406.266 367.908 226.378 446.199 0.00634963 446.199V448.011C226.809 448.011 407.031 369.569 530.543 291.137C592.299 251.922 639.883 212.704 672.032 183.288C688.106 168.579 700.323 156.321 708.523 147.736C712.623 143.443 715.719 140.069 717.791 137.767C718.827 136.616 719.607 135.732 720.129 135.136C720.39 134.838 720.586 134.612 720.718 134.46C720.784 134.383 720.833 134.326 720.866 134.287L720.904 134.244L720.914 134.232ZM720.227 226.049C720.811 226.742 720.809 226.744 720.807 226.746L720.797 226.754L720.76 226.786L720.662 226.867L720.611 226.909C720.479 227.018 720.283 227.181 720.021 227.394C719.499 227.822 718.719 228.455 717.682 229.282C715.609 230.932 712.512 233.351 708.411 236.428C700.21 242.582 687.992 251.37 671.917 261.913C639.767 282.999 592.184 311.107 530.432 339.213C406.928 395.427 226.745 451.635 0.00634963 451.635V449.823C226.441 449.823 406.369 393.691 529.681 337.564C591.338 309.501 638.841 281.439 670.924 260.398C686.965 249.877 699.151 241.112 707.324 234.979C711.41 231.912 714.493 229.504 716.553 227.864C717.583 227.044 718.358 226.415 718.874 225.993C718.984 225.902 719.083 225.821 719.17 225.749C719.286 225.654 719.38 225.576 719.453 225.515C719.518 225.462 719.566 225.421 719.598 225.395L719.633 225.365L719.642 225.358C719.642 225.358 719.643 225.357 719.661 225.378C719.669 225.388 719.682 225.402 719.7 225.424C719.734 225.464 719.788 225.527 719.874 225.63L720.227 226.049ZM720.615 327.43C720.615 327.43 720.615 327.43 720.615 327.428C720.614 327.427 720.613 327.423 720.609 327.415C720.603 327.399 720.588 327.369 720.558 327.305C720.507 327.197 720.41 326.993 720.227 326.611C720.051 326.242 719.954 326.04 719.9 325.929C719.875 325.877 719.86 325.846 719.85 325.826C719.841 325.807 719.837 325.8 719.835 325.797C719.834 325.795 719.834 325.795 719.834 325.795L719.825 325.8L719.79 325.817L719.645 325.885C719.517 325.945 719.323 326.036 719.065 326.156C718.549 326.397 717.774 326.754 716.744 327.221C714.683 328.153 711.6 329.523 707.512 331.267C699.337 334.755 687.149 339.74 671.104 345.722C639.015 357.688 591.502 373.645 529.83 389.605C406.486 421.523 226.508 453.446 0.00634963 453.446V455.258C226.678 455.258 406.811 423.311 530.284 391.359C592.021 375.383 639.593 359.405 671.737 347.419C687.809 341.427 700.024 336.432 708.223 332.934C712.323 331.185 715.419 329.809 717.491 328.872C718.528 328.402 719.308 328.042 719.83 327.799C720.091 327.678 720.287 327.585 720.419 327.524L720.567 327.453L720.605 327.435L720.615 327.43ZM720.227 407.242C720.35 407.89 720.383 408.067 720.391 408.115C720.394 408.133 720.393 408.133 720.393 408.133L720.384 408.135L720.347 408.142L720.199 408.17C720.068 408.194 719.873 408.231 719.612 408.279L719.368 408.324L719.068 408.379C718.902 408.409 718.721 408.443 718.524 408.478C718.161 408.544 717.746 408.619 717.278 408.704C715.209 409.076 712.116 409.621 708.019 410.315C699.826 411.704 687.618 413.686 671.553 416.065C639.424 420.824 591.868 427.167 530.15 433.511C406.713 446.197 226.627 458.882 0.00634963 458.882V457.07C226.56 457.07 406.583 444.389 529.964 431.708C591.655 425.368 639.184 419.028 671.288 414.273C687.34 411.896 699.535 409.916 707.716 408.529C711.807 407.836 714.894 407.291 716.957 406.921C717.989 406.735 718.765 406.593 719.283 406.497C719.542 406.45 719.736 406.413 719.865 406.389L720.011 406.362L720.047 406.354L720.056 406.353C720.056 406.353 720.057 406.353 720.06 406.37C720.064 406.387 720.07 406.42 720.083 406.484L720.11 406.627C720.135 406.758 720.173 406.954 720.227 407.242ZM720.217 456.164C720.22 456.164 720.221 456.164 720.227 457.07C720.234 457.976 720.233 457.976 720.231 457.976H720.222H720.207L720.185 457.977H720.158H720.124H720.085L720.039 457.978H719.987L719.929 457.979H719.865L719.795 457.98H719.719L719.637 457.981L719.549 457.982L719.454 457.983H719.354L719.248 457.984L719.135 457.984L719.017 457.985L718.892 457.986L718.761 457.987L718.625 457.989L718.482 457.99L718.334 457.991L718.179 457.992L718.018 457.994L717.851 457.994L717.679 457.995L717.5 457.997L717.315 457.998L717.125 458L716.928 458.002L716.725 458.003L716.516 458.004L716.302 458.006L716.081 458.008L715.854 458.01L715.622 458.012L715.383 458.013L715.138 458.015L714.888 458.017L714.631 458.019L714.369 458.021L714.1 458.023L713.826 458.024L713.546 458.027L713.26 458.029L712.967 458.032L712.669 458.033L712.365 458.036L712.055 458.038L711.739 458.041L711.418 458.043L711.09 458.045L710.756 458.048L710.417 458.051L710.071 458.053L709.72 458.056L709.362 458.059L708.999 458.061L708.63 458.064L708.255 458.067L707.874 458.07L707.488 458.072L707.095 458.076L706.697 458.079L706.292 458.081L705.882 458.085L705.466 458.088L705.044 458.091L704.616 458.094L704.183 458.098L703.743 458.101L703.298 458.104L702.847 458.108L702.39 458.111L701.927 458.115L701.458 458.119L700.984 458.121L700.503 458.125L700.017 458.129L699.525 458.133L699.028 458.137L698.524 458.14L698.015 458.144L697.499 458.148L696.979 458.152L696.452 458.156L695.919 458.16L695.381 458.164L694.837 458.168L694.287 458.172L693.731 458.177L693.17 458.181L692.602 458.185L692.029 458.189L691.451 458.194L690.866 458.198L690.276 458.203L689.68 458.207L689.078 458.212L688.471 458.216L687.857 458.221L687.238 458.225L686.614 458.23L685.983 458.235L685.347 458.24L684.705 458.244L684.058 458.25L683.404 458.254L682.745 458.259L682.081 458.264L681.41 458.27L680.734 458.274L680.052 458.28L679.365 458.285L678.671 458.29L677.973 458.295L677.268 458.301L676.558 458.306L675.842 458.312L675.12 458.317L674.393 458.322L673.66 458.328L672.921 458.333L672.177 458.339L671.427 458.345L670.672 458.35L669.91 458.356L669.144 458.362L668.371 458.368L667.593 458.374L666.809 458.379L666.02 458.386L665.225 458.391L664.424 458.398L663.618 458.404L662.806 458.41L661.989 458.416L661.166 458.422L660.337 458.428L659.503 458.435L658.663 458.441L657.817 458.447L656.966 458.454L656.11 458.46L655.248 458.467L654.38 458.474L653.506 458.48L652.628 458.486L651.743 458.494L650.853 458.5L649.957 458.507L649.056 458.514L648.15 458.521L647.237 458.527L646.319 458.534L645.396 458.542L644.467 458.548L643.533 458.555L642.593 458.562L641.647 458.57L640.696 458.577L639.74 458.584L638.778 458.591L637.81 458.599L636.837 458.606L635.859 458.613L634.875 458.62L633.885 458.628L632.89 458.636L631.889 458.643L630.883 458.65L629.872 458.658L628.855 458.666L627.832 458.674L626.804 458.681L625.771 458.689L624.732 458.697L623.688 458.705L622.638 458.713L621.583 458.721L620.522 458.729L619.456 458.737L618.384 458.745L617.307 458.754L616.225 458.762L615.137 458.77L614.044 458.778L612.945 458.786L611.841 458.794L610.731 458.803L609.617 458.812L608.496 458.82L607.37 458.828L606.238 458.837L605.102 458.845L603.96 458.854L602.813 458.862L601.66 458.871L600.502 458.88L599.338 458.889L598.169 458.898L596.995 458.907L595.816 458.916L594.631 458.925L593.44 458.933L592.244 458.942L591.043 458.951L589.836 458.96L588.625 458.97L587.408 458.979L586.185 458.988L584.957 458.997L583.724 459.006L582.486 459.016L581.242 459.025L579.993 459.034L578.738 459.044L577.479 459.054L576.213 459.063L574.943 459.073L573.667 459.083L572.386 459.092L571.1 459.102L569.808 459.111L568.511 459.121L567.209 459.131L565.902 459.141L564.589 459.151L563.271 459.161L561.947 459.171L560.619 459.181L559.285 459.191L557.946 459.201L556.601 459.211L555.251 459.222L553.897 459.232L552.536 459.242L551.171 459.253L549.8 459.263L548.425 459.273L547.044 459.284L545.657 459.294L544.266 459.304L542.869 459.315L541.467 459.325L540.06 459.336L538.647 459.347L537.229 459.358L535.807 459.369L534.379 459.379L532.946 459.39L531.508 459.4L530.064 459.411L528.615 459.422L527.161 459.434L525.701 459.445L524.237 459.456L522.768 459.467L521.293 459.478L519.814 459.489L518.329 459.5L516.839 459.512L515.343 459.523L513.843 459.535L512.337 459.545L510.826 459.557L509.31 459.568L507.789 459.58L506.264 459.592L504.732 459.603L503.196 459.614L501.654 459.626L500.108 459.638L498.556 459.65L496.999 459.661L495.437 459.673L493.869 459.685L492.298 459.697L490.72 459.709L489.138 459.72L487.551 459.733L485.958 459.745L484.361 459.757L482.758 459.768L481.15 459.781L479.538 459.793L477.92 459.805L476.296 459.817L474.668 459.83L473.036 459.842L471.397 459.854L469.754 459.867L468.106 459.88L466.452 459.892L464.794 459.904L463.131 459.917L461.462 459.93L459.789 459.942L458.11 459.955L456.427 459.968L454.738 459.98L453.045 459.993L451.347 460.006L449.643 460.018L447.935 460.032L446.222 460.045L444.503 460.057L442.779 460.071L441.051 460.084L439.318 460.096L437.579 460.11L435.836 460.123L434.088 460.136L432.334 460.15L430.576 460.162L428.812 460.176L427.044 460.19L425.271 460.202L423.493 460.216L421.71 460.229L419.921 460.243L418.129 460.257L416.331 460.27L414.528 460.284L412.72 460.297L410.907 460.311L409.09 460.325L407.267 460.338L405.44 460.353L403.608 460.366L401.771 460.38L399.928 460.394L398.081 460.408L396.229 460.422L394.372 460.436L392.51 460.45L390.644 460.464L388.773 460.478L386.896 460.492L385.015 460.507L383.129 460.52L381.238 460.535L379.342 460.549L377.441 460.564L375.536 460.578L373.625 460.593L371.71 460.607L369.789 460.622L367.864 460.636L365.935 460.651L364.001 460.665L362.061 460.68L360.117 460.694L358.167 460.709L356.213 460.724L354.254 460.739L352.291 460.753L350.323 460.768L348.35 460.783L346.372 460.798L344.389 460.813L342.401 460.828L340.409 460.843L338.411 460.858L336.409 460.874L334.403 460.888L332.391 460.903L330.375 460.919L328.354 460.934L326.328 460.95L324.298 460.965L322.262 460.981L320.222 460.996L318.177 461.011L316.127 461.027L314.073 461.042L312.014 461.057L309.95 461.073L307.881 461.088L305.809 461.105L303.73 461.12L301.648 461.135L299.56 461.152L297.468 461.167L295.371 461.183L293.269 461.199L291.163 461.215L289.052 461.231L286.936 461.247L284.816 461.263L282.691 461.279L280.561 461.295L278.427 461.311L276.288 461.327L274.144 461.343L271.995 461.359L269.842 461.375L267.684 461.392L265.521 461.408L263.354 461.424L261.183 461.441L259.007 461.457L256.825 461.474L254.639 461.491L252.449 461.507L250.255 461.523L248.054 461.54L245.85 461.557L243.641 461.574L241.428 461.59L239.209 461.606L236.987 461.624L234.759 461.64L232.527 461.657L230.291 461.674L228.05 461.691L225.804 461.708L223.554 461.725L221.299 461.742L219.04 461.759L216.775 461.776L214.506 461.793L212.233 461.81L209.955 461.828L207.673 461.845L205.386 461.862L203.094 461.879L200.798 461.896L198.497 461.915L196.192 461.932L193.883 461.949L191.568 461.966L189.25 461.984L186.926 462.002L184.598 462.019L182.266 462.037L179.928 462.054L177.587 462.072L175.241 462.089L172.891 462.108L170.536 462.126L168.176 462.143L165.812 462.161L163.444 462.179L161.07 462.196L158.693 462.214L156.311 462.233L153.924 462.251L151.534 462.269L149.138 462.287L146.738 462.305L144.334 462.323L141.925 462.341L139.512 462.359L137.094 462.377L134.672 462.396L132.245 462.415L129.814 462.433L127.378 462.451L124.939 462.469L122.494 462.488L120.045 462.506L117.592 462.525L115.134 462.543L112.672 462.562L110.206 462.58L107.734 462.599L105.259 462.618L102.78 462.637L100.295 462.656L97.806 462.674L95.3137 462.693L92.8161 462.712L90.3139 462.731L87.8081 462.75L85.2977 462.769L82.7828 462.788L80.2634 462.807L77.7394 462.826L75.211 462.845L72.6789 462.864L70.1423 462.883L67.601 462.902L65.0554 462.921L62.5052 462.941L59.9513 462.96L57.393 462.979L54.8301 462.998L52.2627 463.018L49.6916 463.037L47.1151 463.057L44.535 463.076L41.9504 463.096L39.3621 463.115L36.7684 463.135L34.1711 463.155L31.5692 463.174L28.9637 463.194L26.3528 463.214L23.7383 463.233L21.1192 463.253L18.4956 463.273L15.8684 463.293L13.2366 463.312L10.6004 463.332L7.96048 463.352L5.31513 463.372L2.66611 463.392L0.013554 463.412L-6.10541e-05 461.6L2.65256 461.58L5.30157 461.56L7.94686 461.54L10.5868 461.52L13.223 461.501L15.8548 461.481L18.482 461.461L21.1056 461.441L23.7247 461.422L26.3392 461.402L28.9492 461.382L31.5556 461.362L34.1575 461.343L36.7548 461.323L39.3485 461.303L41.9368 461.284L44.5214 461.264L47.1015 461.245L49.678 461.225L52.2491 461.206L54.8164 461.187L57.3794 461.167L59.9377 461.148L62.4916 461.129L65.0418 461.109L67.5875 461.09L70.1287 461.071L72.6653 461.052L75.1974 461.033L77.7258 461.014L80.2498 460.995L82.7692 460.976L85.2841 460.957L87.7944 460.938L90.3003 460.919L92.8025 460.9L95.3001 460.881L97.7924 460.862L100.281 460.844L102.765 460.825L105.246 460.806L107.721 460.788L110.192 460.768L112.658 460.75L115.12 460.731L117.578 460.713L120.031 460.694L122.48 460.676L124.925 460.657L127.365 460.639L129.8 460.621L132.232 460.603L134.659 460.584L137.08 460.566L139.498 460.547L141.912 460.529L144.32 460.511L146.725 460.493L149.125 460.475L151.52 460.457L153.911 460.439L156.298 460.421L158.68 460.403L161.057 460.384L163.43 460.367L165.798 460.349L168.163 460.331L170.522 460.314L172.877 460.296L175.227 460.277L177.574 460.26L179.915 460.242L182.252 460.225L184.584 460.207L186.912 460.19L189.236 460.172L191.554 460.154L193.869 460.137L196.178 460.12L198.484 460.103L200.784 460.085L203.081 460.067L205.372 460.05L207.659 460.033L209.941 460.016L212.22 459.998L214.493 459.981L216.761 459.964L219.025 459.948L221.285 459.93L223.54 459.913L225.791 459.896L228.036 459.879L230.277 459.863L232.514 459.845L234.746 459.829L236.973 459.812L239.196 459.795L241.414 459.778L243.628 459.762L245.836 459.745L248.04 459.728L250.24 459.711L252.435 459.695L254.626 459.679L256.812 459.662L258.992 459.646L261.169 459.629L263.341 459.612L265.508 459.596L267.67 459.58L269.828 459.564L271.982 459.547L274.13 459.531L276.274 459.516L278.413 459.499L280.547 459.483L282.677 459.467L284.802 459.451L286.922 459.435L289.039 459.419L291.15 459.403L293.256 459.387L295.358 459.372L297.454 459.355L299.547 459.34L301.634 459.323L303.717 459.308L305.795 459.293L307.868 459.276L309.937 459.261L312.001 459.246L314.06 459.23L316.114 459.215L318.164 459.199L320.208 459.184L322.249 459.169L324.284 459.153L326.314 459.138L328.34 459.122L330.361 459.107L332.378 459.092L334.389 459.076L336.396 459.062L338.398 459.046L340.395 459.031L342.388 459.016L344.375 459.001L346.357 458.986L348.336 458.971L350.309 458.957L352.278 458.941L354.241 458.927L356.199 458.912L358.154 458.897L360.103 458.882L362.047 458.868L363.987 458.853L365.921 458.839L367.851 458.824L369.776 458.81L371.696 458.795L373.612 458.781L375.522 458.766L377.427 458.752L379.328 458.737L381.224 458.723L383.115 458.709L385.001 458.695L386.883 458.68L388.759 458.667L390.631 458.652L392.497 458.638L394.359 458.624L396.216 458.61L398.067 458.596L399.915 458.582L401.756 458.568L403.594 458.554L405.426 458.541L407.254 458.526L409.076 458.513L410.894 458.499L412.707 458.485L414.515 458.472L416.318 458.458L418.115 458.445L419.908 458.431L421.696 458.418L423.479 458.404L425.257 458.39L427.03 458.378L428.799 458.364L430.562 458.35L432.32 458.338L434.074 458.324L435.822 458.311L437.565 458.298L439.304 458.284L441.037 458.272L442.766 458.259L444.489 458.245L446.208 458.233L447.921 458.22L449.63 458.206L451.333 458.194L453.032 458.181L454.725 458.168L456.413 458.156L458.097 458.143L459.775 458.13L461.449 458.118L463.117 458.105L464.781 458.092L466.439 458.08L468.092 458.068L469.74 458.055L471.383 458.042L473.021 458.031L474.655 458.018L476.282 458.005L477.906 457.994L479.524 457.981L481.137 457.969L482.744 457.957L484.347 457.945L485.944 457.933L487.537 457.921L489.124 457.908L490.707 457.897L492.284 457.885L493.856 457.873L495.423 457.861L496.985 457.849L498.542 457.838L500.094 457.826L501.641 457.814L503.182 457.802L504.718 457.791L506.25 457.78L507.776 457.768L509.297 457.756L510.812 457.745L512.323 457.733L513.829 457.723L515.329 457.711L516.825 457.7L518.315 457.688L519.8 457.677L521.28 457.666L522.754 457.655L524.224 457.644L525.688 457.633L527.147 457.622L528.601 457.611L530.05 457.599L531.494 457.589L532.932 457.578L534.365 457.567L535.794 457.557L537.216 457.546L538.634 457.535L540.046 457.524L541.453 457.513L542.855 457.503L544.252 457.493L545.644 457.483L547.03 457.472L548.411 457.461L549.787 457.451L551.157 457.441L552.523 457.43L553.883 457.42L555.238 457.41L556.588 457.399L557.932 457.389L559.271 457.379L560.605 457.369L561.934 457.359L563.257 457.349L564.575 457.339L565.888 457.329L567.195 457.319L568.497 457.31L569.794 457.3L571.086 457.291L572.373 457.281L573.654 457.271L574.929 457.262L576.199 457.252L577.465 457.242L578.724 457.233L579.979 457.223L581.228 457.213L582.472 457.204L583.71 457.194L584.943 457.185L586.171 457.176L587.394 457.167L588.611 457.158L589.823 457.148L591.03 457.139L592.231 457.13L593.427 457.121L594.617 457.113L595.802 457.104L596.982 457.095L598.156 457.086L599.324 457.077L600.488 457.069L601.646 457.059L602.8 457.05L603.946 457.042L605.089 457.033L606.225 457.025L607.356 457.016L608.482 457.008L609.602 457L610.717 456.991L611.827 456.982L612.932 456.974L614.03 456.966L615.123 456.958L616.211 456.95L617.294 456.942L618.371 456.934L619.442 456.925L620.509 456.917L621.57 456.909L622.624 456.901L623.674 456.893L624.719 456.886L625.758 456.877L626.791 456.87L627.819 456.862L628.842 456.854L629.858 456.847L630.87 456.839L631.876 456.831L632.876 456.824L633.871 456.817L634.861 456.809L635.845 456.801L636.824 456.794L637.797 456.787L638.764 456.78L639.726 456.772L640.683 456.765L641.634 456.758L642.579 456.751L643.519 456.743L644.454 456.736L645.382 456.73L646.306 456.722L647.224 456.715L648.136 456.709L649.043 456.702L649.944 456.695L650.839 456.688L651.729 456.682L652.614 456.674L653.493 456.668L654.366 456.662L655.234 456.655L656.096 456.648L656.953 456.642L657.804 456.635L658.649 456.629L659.489 456.623L660.323 456.616L661.152 456.61L661.975 456.604L662.793 456.598L663.604 456.592L664.411 456.586L665.211 456.579L666.006 456.574L666.796 456.568L667.579 456.562L668.357 456.556L669.13 456.55L669.897 456.544L670.658 456.539L671.414 456.533L672.163 456.528L672.908 456.521L673.646 456.516L674.379 456.51L675.107 456.505L675.828 456.5L676.544 456.494L677.254 456.489L677.959 456.483L678.658 456.478L679.351 456.473L680.039 456.468L680.72 456.462L681.397 456.458L682.067 456.452L682.732 456.447L683.391 456.443L684.044 456.438L684.692 456.433L685.334 456.428L685.97 456.423L686.6 456.418L687.225 456.414L687.844 456.409L688.457 456.404L689.065 456.4L689.666 456.395L690.262 456.391L690.853 456.386L691.437 456.382L692.016 456.377L692.589 456.373L693.156 456.369L693.717 456.365L694.273 456.36L694.823 456.356L695.367 456.352L695.906 456.348L696.438 456.344L696.965 456.34L697.486 456.337L698.001 456.332L698.51 456.328L699.014 456.325L699.512 456.321L700.004 456.318L700.49 456.314L700.97 456.31L701.445 456.307L701.913 456.303L702.376 456.299L702.833 456.296L703.284 456.292L703.73 456.289L704.169 456.286L704.603 456.282L705.031 456.279L705.452 456.276L705.868 456.273L706.279 456.269L706.683 456.267L707.082 456.264L707.474 456.26L707.861 456.258L708.242 456.255L708.617 456.252L708.986 456.25L709.349 456.247L709.706 456.244L710.057 456.241L710.403 456.239L710.742 456.236L711.076 456.233L711.404 456.231L711.726 456.229L712.042 456.226L712.352 456.224L712.656 456.221L712.954 456.22L713.246 456.217L713.532 456.215L713.813 456.213L714.087 456.211L714.355 456.209L714.618 456.207L714.874 456.205L715.125 456.203L715.369 456.202L715.608 456.2L715.841 456.198L716.067 456.196L716.288 456.194L716.503 456.192L716.711 456.191L716.914 456.19L717.111 456.188L717.302 456.187L717.486 456.185L717.665 456.183L717.838 456.182L718.005 456.182L718.165 456.18L718.32 456.179L718.469 456.178L718.611 456.177L718.748 456.175L718.878 456.174L719.003 456.173L719.121 456.173L719.234 456.172H719.34L719.441 456.171L719.535 456.17L719.623 456.169L719.705 456.168H719.782L719.852 456.167H719.916L719.973 456.166H720.025L720.071 456.165H720.111H720.144H720.172L720.193 456.164H720.208H720.217ZM720.227 699.869C720.811 699.176 720.809 699.175 720.807 699.173L720.797 699.165L720.76 699.134L720.751 699.125L720.671 699.059L720.611 699.009L720.5 698.917L720.373 698.813C720.273 698.73 720.156 698.634 720.021 698.524C719.499 698.096 718.719 697.463 717.682 696.638C715.609 694.986 712.512 692.568 708.411 689.49C700.21 683.336 687.992 674.548 671.917 664.006C639.767 642.919 592.184 614.812 530.432 586.705C406.928 530.492 226.745 474.284 0.00634963 474.284V476.096C226.441 476.096 406.369 532.227 529.681 588.354C591.338 616.418 638.841 644.479 670.924 665.52C686.965 676.041 699.151 684.807 707.324 690.94C711.41 694.006 714.493 696.415 716.553 698.055C717.583 698.875 718.358 699.503 718.874 699.925C719.132 700.137 719.325 700.297 719.453 700.404C719.505 700.446 719.546 700.481 719.577 700.506L719.598 700.523L719.633 700.553L719.642 700.56C719.642 700.56 719.643 700.561 719.686 700.511C719.747 700.44 719.889 700.271 720.227 699.869ZM720.615 597.582C720.617 597.583 720.618 597.584 720.227 598.401C719.836 599.218 719.836 599.218 719.834 599.217L719.825 599.213L719.79 599.196L719.645 599.128C719.517 599.067 719.323 598.976 719.065 598.856C718.853 598.757 718.598 598.639 718.299 598.502C718.117 598.417 717.918 598.326 717.703 598.228C717.413 598.096 717.093 597.95 716.744 597.792C714.683 596.859 711.6 595.489 707.512 593.745C699.337 590.258 687.149 585.274 671.104 579.291C639.015 567.325 591.502 551.367 529.83 535.407C406.486 503.489 226.508 471.566 0.00634963 471.566V469.754C226.678 469.754 406.811 501.701 530.284 533.653C592.021 549.629 639.593 565.607 671.737 577.593C687.809 583.586 700.024 588.58 708.223 592.079C712.323 593.828 715.419 595.203 717.491 596.142C718.528 596.61 719.308 596.971 719.83 597.213C719.977 597.282 720.103 597.341 720.209 597.391C720.291 597.429 720.361 597.462 720.419 597.49L720.567 597.559L720.605 597.578L720.615 597.582ZM720.227 516.864C720.396 515.974 720.395 515.974 720.393 515.974L720.384 515.972L720.347 515.964L720.199 515.937C720.068 515.913 719.873 515.876 719.612 515.828C719.092 515.732 718.313 515.589 717.278 515.403C715.209 515.03 712.116 514.485 708.019 513.791C699.826 512.403 687.618 510.42 671.553 508.041C639.424 503.283 591.868 496.939 530.15 490.596C406.713 477.909 226.627 465.224 0.00634963 465.224V467.036C226.56 467.036 406.583 479.718 529.964 492.398C591.655 498.738 639.184 505.078 671.288 509.833C687.34 512.21 699.535 514.192 707.716 515.578C711.807 516.271 714.894 516.815 716.957 517.186C717.581 517.298 718.11 517.394 718.546 517.474C718.832 517.526 719.078 517.572 719.283 517.61C719.542 517.658 719.736 517.694 719.865 517.718L720.011 517.746L720.047 517.752L720.056 517.754C720.057 517.754 720.058 517.755 720.227 516.864Z" fill="url(#paint0_linear_801_14010)"/>
<defs>
<linearGradient id="paint0_linear_801_14010" x1="10.8766" y1="341.093" x2="707.018" y2="341.093" gradientUnits="userSpaceOnUse">
<stop offset="0.0182341" stop-color="#FD4B28" stop-opacity="0"/>
<stop offset="0.127609" stop-color="#FD4B28"/>
<stop offset="0.563305" stop-color="#FD4C28" stop-opacity="0.65"/>
<stop offset="0.943305" stop-color="#FD4C28" stop-opacity="0"/>
</linearGradient>
</defs>
</svg>
