<svg width="49" height="53" viewBox="0 0 49 53" fill="none" xmlns="http://www.w3.org/2000/svg">
<path fill-rule="evenodd" clip-rule="evenodd" d="M25.3949 0.10009C24.746 -0.0333634 24.0767 -0.0333634 23.4279 0.10009C22.6778 0.254355 22.0074 0.629855 21.4744 0.92838L21.3291 1.00954L3.26538 11.0449C3.21544 11.0727 3.16398 11.101 3.11125 11.1301C2.54705 11.4408 1.83764 11.8316 1.29286 12.4227C0.821859 12.9338 0.465417 13.5396 0.247371 14.1996C-0.00483069 14.9629 -0.00188 15.7728 0.000466588 16.4169C0.000685946 16.4771 0.000899906 16.5358 0.000899906 16.593V36.4072C0.000899906 36.4643 0.000685946 36.5231 0.000466588 36.5833C-0.00188 37.2274 -0.00483069 38.0373 0.247371 38.8006C0.465418 39.4606 0.821862 40.0663 1.29286 40.5774C1.83764 41.1686 2.54705 41.5593 3.11125 41.8701C3.16398 41.8991 3.21544 41.9275 3.26538 41.9552L21.3291 51.9906L21.4744 52.0718C22.0074 52.3703 22.6778 52.7458 23.4279 52.9001C24.0767 53.0335 24.746 53.0335 25.3949 52.9001C26.1449 52.7458 26.8153 52.3703 27.3483 52.0718L27.4936 51.9906L45.5573 41.9552C45.5794 41.943 45.6018 41.9306 45.6244 41.9181C45.653 41.9023 45.682 41.8863 45.7114 41.8701C46.2756 41.5594 46.9851 41.1686 47.5298 40.5774C48.0009 40.0663 48.3573 39.4605 48.5753 38.8006C48.8275 38.0373 48.8246 37.2274 48.8222 36.5833C48.822 36.5231 48.8218 36.4643 48.8218 36.4072V16.593C48.8218 16.5358 48.822 16.4771 48.8222 16.4169C48.8246 15.7728 48.8275 14.9629 48.5753 14.1996C48.3573 13.5396 48.0009 12.9338 47.5298 12.4227C46.9851 11.8316 46.2757 11.4408 45.7114 11.1301L45.7095 11.129C45.6574 11.1003 45.6066 11.0723 45.5573 11.0449L27.4936 1.00953L27.3483 0.928372C26.8153 0.629849 26.1449 0.254354 25.3949 0.10009ZM23.7001 5.27725C24.07 5.07174 24.2588 4.9679 24.3997 4.89996L24.4114 4.89437L24.423 4.89996C24.5639 4.9679 24.7527 5.07174 25.1226 5.27725L41.3542 14.2948L24.4113 23.7076L7.46839 14.2948L23.7001 5.27725ZM4.88299 18.4434L21.9702 27.9363L21.9703 46.7619L5.63633 37.6875C5.24588 37.4706 5.04653 37.3587 4.90667 37.2696L4.89486 37.262L4.89398 37.248C4.88401 37.0825 4.88299 36.8539 4.88299 36.4072V18.4434Z" fill="white"/>
</svg>
